<?xml version="1.0" standalone="no"?>
<!DOCTYPE svg PUBLIC "-//W3C//DTD SVG 20010904//EN"
 "http://www.w3.org/TR/2001/REC-SVG-20010904/DTD/svg10.dtd">
<svg version="1.0" xmlns="http://www.w3.org/2000/svg"
 width="1572.000000pt" height="1572.000000pt" viewBox="0 0 1572.000000 1572.000000"
 preserveAspectRatio="xMidYMid meet">
<metadata>
Created by potrace 1.11, written by Peter Selinger 2001-2013
</metadata>
<g transform="translate(0.000000,1572.000000) scale(0.100000,-0.100000)"
fill="#000000" stroke="none">
<path d="M7590 15659 c-776 -29 -1597 -204 -2325 -496 -160 -65 -487 -213
-545 -248 -19 -12 -50 -27 -67 -34 -18 -8 -33 -19 -33 -27 0 -7 -6 -11 -14 -8
-11 4 -53 -14 -106 -46 -8 -5 -82 -48 -165 -96 -82 -48 -153 -92 -157 -98 -4
-6 -8 -8 -8 -3 0 9 -97 -54 -129 -85 -13 -13 -21 -17 -16 -10 9 17 -74 -35
-97 -60 -9 -10 -31 -25 -50 -33 -27 -11 -182 -118 -223 -153 -6 -5 -45 -32
-87 -61 -41 -29 -84 -60 -94 -69 -11 -9 -37 -30 -59 -47 -22 -16 -47 -35 -55
-42 -8 -7 -43 -34 -76 -61 -34 -27 -72 -59 -85 -71 -12 -11 -26 -21 -30 -21
-4 0 -11 -9 -14 -20 -3 -11 -11 -20 -17 -20 -19 0 -148 -111 -270 -232 -43
-43 -81 -78 -85 -78 -10 0 -325 -320 -423 -430 -41 -46 -96 -106 -122 -134
-25 -28 -57 -64 -69 -81 -13 -16 -29 -34 -35 -40 -11 -9 -116 -139 -265 -327
-133 -166 -211 -291 -324 -518 -296 -590 -540 -1345 -755 -2325 -16 -77 -35
-158 -40 -180 -5 -22 -36 -170 -69 -330 -165 -803 -257 -1406 -301 -1990 -15
-192 -20 -747 -9 -934 26 -462 105 -943 187 -1151 42 -106 175 -330 295 -500
517 -727 1151 -1206 2047 -1546 63 -24 118 -44 121 -44 3 0 9 55 12 123 7 146
34 245 102 374 61 118 189 263 317 361 27 20 48 40 48 44 0 4 6 8 13 8 6 0 23
12 36 25 13 14 27 25 32 25 4 0 39 23 76 51 37 28 82 58 98 66 17 9 32 19 35
23 8 11 127 80 138 80 5 0 15 7 22 15 6 8 15 13 19 12 4 -1 30 12 57 29 57 36
176 95 185 91 3 -1 13 6 23 16 10 9 24 17 31 17 7 0 20 6 27 13 7 7 36 21 63
32 28 10 82 33 120 51 39 18 120 52 180 74 106 39 121 45 175 68 29 12 100 36
115 38 6 1 13 3 18 4 4 1 10 3 15 5 14 4 47 17 80 31 18 8 39 14 47 14 8 0 56
13 107 29 129 40 200 60 223 64 11 2 27 6 35 9 15 6 175 44 215 52 11 3 56 12
100 21 44 9 87 18 95 20 8 2 33 8 55 14 22 5 49 10 60 10 11 0 47 6 80 14 51
13 197 38 310 53 198 26 266 34 330 38 28 2 84 7 125 10 157 12 301 18 475 18
252 0 637 -14 714 -26 19 -3 66 -8 105 -11 96 -7 168 -15 186 -22 8 -3 32 -5
53 -4 20 2 52 -2 70 -8 19 -7 60 -13 93 -15 32 -2 74 -9 92 -14 17 -6 32 -9
32 -7 0 3 11 0 25 -5 13 -5 46 -12 72 -15 26 -3 66 -11 88 -17 22 -6 55 -12
72 -13 52 -5 93 -16 93 -25 0 -5 14 -7 30 -5 17 2 30 -1 30 -6 0 -6 4 -8 9 -5
5 4 21 2 35 -4 18 -6 26 -6 26 1 0 6 13 1 29 -10 16 -12 54 -23 86 -27 33 -4
59 -13 62 -20 3 -8 10 -11 17 -7 6 4 -13 -17 -42 -46 -58 -58 -113 -157 -136
-248 -9 -33 -25 -138 -36 -234 -41 -349 -37 -1254 6 -1547 42 -287 139 -473
277 -532 104 -45 245 -5 361 101 65 60 103 123 145 241 54 155 76 324 90 688
15 412 -11 902 -59 1108 -29 123 -95 283 -142 344 -33 42 -34 46 -9 20 18 -17
41 -32 52 -32 11 0 32 -11 47 -25 27 -25 100 -55 134 -55 11 0 16 -4 13 -10
-3 -6 1 -7 9 -4 9 3 16 2 16 -4 0 -6 15 -14 33 -17 17 -4 42 -16 54 -27 12
-11 26 -17 32 -13 6 3 11 1 11 -5 0 -7 7 -10 15 -6 9 3 37 -8 64 -24 26 -17
53 -30 58 -30 6 0 16 -7 23 -16 12 -14 77 -46 83 -41 1 1 13 -8 27 -20 13 -13
33 -23 44 -23 12 0 32 -12 45 -25 13 -14 29 -25 37 -25 8 0 14 -5 14 -10 0 -6
3 -9 8 -8 14 3 42 -14 36 -23 -3 -5 2 -6 10 -3 9 3 16 1 16 -6 0 -7 8 -9 23
-5 16 4 18 4 8 -3 -11 -8 -9 -11 7 -16 12 -4 30 -18 40 -31 11 -13 22 -21 26
-18 3 3 6 1 6 -6 0 -7 5 -9 10 -6 6 3 10 -1 10 -11 0 -11 6 -15 20 -11 12 3
20 0 20 -7 0 -13 35 -46 50 -46 6 0 10 -5 10 -11 0 -5 4 -8 9 -5 12 8 103 -83
95 -95 -3 -5 3 -9 12 -9 10 0 14 -3 11 -7 -4 -3 -2 -12 5 -20 6 -7 8 -16 5
-19 -7 -8 18 -34 32 -34 6 0 8 -7 5 -15 -4 -9 5 -21 23 -32 17 -11 28 -27 29
-43 2 -39 3 -40 20 -40 8 0 13 -4 10 -9 -3 -5 7 -11 22 -14 29 -6 41 -40 20
-53 -6 -4 -8 -3 -5 3 4 6 -1 17 -10 24 -14 12 -15 11 -8 -11 8 -27 22 -40 44
-40 7 0 11 6 8 14 -4 9 -1 13 6 10 7 -2 13 -13 13 -24 0 -10 -4 -16 -9 -13
-16 10 3 -70 21 -84 16 -12 15 -13 -3 -7 -20 6 -20 5 -1 -10 18 -14 21 -14 40
2 14 11 17 12 10 2 -21 -29 -24 -61 -6 -67 16 -6 32 -22 32 -33 0 -3 -9 -6
-20 -7 -13 -1 -18 2 -14 9 4 7 2 8 -4 4 -18 -11 -15 -16 16 -27 16 -5 29 -16
29 -24 0 -13 -3 -13 -17 0 -9 8 -23 15 -30 15 -16 0 -3 -15 13 -15 7 0 11 -8
11 -18 -1 -10 7 -20 22 -23 13 -3 24 -11 24 -16 0 -6 6 -8 13 -5 8 3 14 -1 14
-10 0 -10 -7 -13 -26 -8 -14 4 -23 3 -19 -1 4 -4 3 -13 -3 -21 -9 -9 -8 -13 0
-13 6 0 11 -7 11 -16 0 -8 4 -13 9 -9 6 3 8 14 6 25 -2 11 0 20 6 20 5 0 9 -4
9 -9 0 -5 8 -12 18 -14 16 -4 16 -5 0 -6 -10 0 -18 -6 -18 -11 0 -6 3 -9 8 -9
20 3 32 -2 26 -13 -4 -7 -3 -8 4 -4 7 4 12 14 12 22 0 8 5 12 10 9 7 -4 8 -11
1 -18 -9 -11 -11 -18 -11 -32 0 -3 -8 -1 -18 4 -14 7 -18 6 -19 -9 -1 -16 4
-18 34 -14 31 4 35 2 30 -16 -3 -11 -2 -20 3 -20 4 0 11 -11 14 -25 6 -23 8
-24 22 -10 8 8 25 16 37 16 15 1 17 3 6 6 -10 2 -19 13 -22 25 -4 14 -11 19
-21 15 -9 -4 -16 -1 -16 4 0 7 9 9 21 6 15 -4 19 -2 15 9 -4 11 -2 11 13 2 10
-6 18 -17 18 -24 0 -7 -4 -11 -9 -8 -4 3 -8 1 -8 -4 0 -4 15 -16 33 -25 17
-10 22 -15 10 -12 -28 8 -37 -9 -16 -30 16 -16 18 -16 34 3 9 12 19 18 23 15
10 -11 7 -23 -7 -23 -7 0 -13 -9 -13 -20 0 -12 6 -20 16 -19 28 3 41 -1 36
-10 -3 -5 0 -11 8 -14 12 -5 31 19 26 32 -1 2 6 8 15 13 11 7 13 13 6 22 -6 7
-6 18 -1 25 4 8 6 21 3 30 -4 13 -3 13 5 2 7 -9 12 -10 16 -2 4 6 5 11 2 11
-3 0 2 9 11 20 23 26 30 17 9 -14 -20 -31 -20 -32 0 -40 8 -3 12 -2 9 4 -3 5
1 22 9 37 13 25 22 19 17 -11 -1 -4 4 -15 11 -24 10 -12 10 -14 1 -8 -26 15
-12 -2 15 -19 15 -10 24 -14 20 -10 -4 5 -3 14 3 22 7 8 8 13 1 13 -5 0 -12 8
-14 18 -4 13 1 17 24 17 20 0 28 -5 28 -17 0 -10 7 -18 15 -18 9 0 15 9 15 23
0 18 -2 19 -10 7 -5 -8 -10 -10 -10 -5 0 6 4 17 10 25 6 9 5 17 -3 22 -8 5 -7
8 4 8 9 0 20 -7 23 -16 8 -20 68 -15 73 6 4 13 3 13 -6 0 -9 -12 -11 -11 -12
10 -1 14 -2 31 -2 37 1 7 -3 13 -8 13 -5 0 -8 -14 -7 -32 3 -35 -20 -52 -29
-20 -3 14 -11 18 -26 15 -18 -4 -19 -3 -7 6 13 9 12 12 -5 26 -20 15 -20 15 0
8 11 -3 23 -11 27 -16 7 -12 38 15 38 33 0 7 6 6 15 -4 8 -8 15 -19 15 -25 0
-6 7 -11 15 -11 12 0 14 -7 10 -27 -6 -25 -5 -26 5 -9 9 13 9 25 2 41 -9 20
-8 22 9 18 14 -4 19 0 19 13 1 18 1 18 15 0 13 -17 12 -21 -3 -33 -13 -10 -13
-13 -2 -11 8 2 23 13 33 26 17 21 44 22 32 1 -4 -5 -1 -9 4 -9 6 0 11 5 11 11
0 5 5 7 10 4 6 -4 10 -3 9 2 -1 4 0 24 1 43 2 33 3 33 10 10 8 -24 8 -23 9 8
1 18 5 31 10 27 5 -3 12 -1 16 5 7 12 25 4 25 -11 0 -6 -4 -8 -9 -5 -5 3 -11
0 -14 -8 -3 -8 1 -17 10 -20 18 -7 36 2 28 14 -3 5 3 14 12 20 17 10 17 10 -2
8 -11 -2 -21 4 -22 12 -2 10 4 16 17 17 11 1 18 -1 16 -5 -3 -4 4 -8 15 -8 10
0 19 7 19 15 0 12 3 12 12 3 16 -16 41 -16 32 1 -10 17 8 -1 35 -38 23 -30 23
-30 19 -5 -2 17 1 24 11 22 7 -1 19 3 27 9 10 8 14 8 14 0 0 -13 39 -14 59 -2
12 8 12 12 2 25 -16 19 -5 21 14 3 9 -10 10 -18 2 -33 -9 -16 -8 -17 5 -7 8 7
17 11 20 8 9 -9 68 -12 68 -4 0 5 -5 9 -12 9 -9 0 -9 3 -1 11 6 6 9 18 6 25
-3 8 0 14 6 14 6 0 11 -8 11 -18 0 -10 6 -25 13 -33 6 -8 11 -13 10 -10 -2 4
23 31 30 31 3 0 7 -7 10 -14 4 -10 1 -13 -9 -9 -18 7 -18 -1 1 -37 9 -18 11
-31 5 -35 -6 -3 -10 -12 -10 -18 0 -7 4 -6 10 3 7 10 10 -34 10 -132 0 -82 2
-148 5 -148 13 0 210 77 340 133 818 350 1411 834 1885 1539 197 293 268 449
325 712 82 385 116 750 116 1266 -1 599 -54 1119 -201 1945 -24 134 -152 785
-169 855 -6 25 -22 99 -36 165 -34 158 -63 282 -75 325 -5 19 -26 103 -46 185
-163 690 -379 1318 -629 1830 -142 292 -236 431 -542 802 -347 422 -776 851
-1186 1187 -401 328 -848 626 -1337 891 -788 427 -1702 701 -2630 789 -161 16
-590 37 -680 34 -25 -1 -133 -4 -240 -9z m809 -559 c305 -34 545 -79 816 -154
1153 -319 2109 -987 2647 -1850 270 -432 440 -896 510 -1386 18 -127 18 -669
0 -800 -42 -304 -90 -508 -177 -757 -145 -419 -387 -817 -723 -1194 -374 -421
-801 -740 -1347 -1009 -479 -235 -948 -378 -1510 -459 -861 -125 -1688 -43
-2513 248 -664 234 -1285 626 -1747 1102 -653 674 -1024 1555 -1025 2434 0
288 37 587 101 825 85 312 241 676 406 945 7 11 26 45 44 75 143 246 535 678
844 930 358 291 895 591 1385 772 330 123 845 243 1185 278 346 35 790 35
1104 0z m1177 -10494 c90 -65 142 -168 151 -301 12 -169 -35 -438 -95 -548
-29 -53 -85 -90 -123 -80 -11 3 -50 39 -87 81 -37 41 -81 90 -98 109 -18 18
-29 33 -25 33 3 0 -5 6 -19 13 -34 17 -69 134 -77 257 -5 92 -4 99 35 211 56
163 83 207 147 243 48 26 141 18 191 -18z m1779 -1186 c3 -5 1 -10 -4 -10 -6
0 -11 5 -11 10 0 6 2 10 4 10 3 0 8 -4 11 -10z m1215 -6 c0 -8 -19 -13 -24 -6
-3 5 1 9 9 9 8 0 15 -2 15 -3z m10 -24 c0 -5 -5 -10 -11 -10 -5 0 -7 5 -4 10
3 6 8 10 11 10 2 0 4 -4 4 -10z m-451 -114 c-9 -8 -10 -7 -5 7 3 10 7 26 7 35
1 9 4 6 6 -7 3 -13 -1 -28 -8 -35z m-712 19 c0 -8 -4 -12 -9 -9 -5 3 -6 10 -3
15 9 13 12 11 12 -6z m158 -25 c3 -5 1 -10 -4 -10 -6 0 -11 5 -11 10 0 6 2 10
4 10 3 0 8 -4 11 -10z m-101 -44 c-3 -9 -10 -13 -15 -10 -5 3 -3 11 4 19 15
16 19 13 11 -9z m140 12 c-3 -4 -9 -8 -15 -8 -5 0 -9 4 -9 8 0 5 7 9 15 9 8 0
12 -4 9 -9z m66 -16 c-8 -4 -15 -17 -14 -29 1 -12 -2 -20 -6 -18 -4 3 -10 -5
-13 -16 -4 -14 -10 -18 -19 -13 -8 4 -10 3 -5 -2 12 -12 30 -12 39 1 4 5 10
-5 14 -22 4 -18 12 -33 18 -33 6 0 4 -5 -4 -10 -20 -13 -33 -13 -25 0 3 6 2
10 -4 10 -5 0 -13 -4 -16 -10 -3 -5 -13 -10 -22 -10 -14 0 -13 3 3 21 17 19
17 22 2 33 -30 22 -27 64 5 62 17 -1 21 4 20 22 -2 17 2 22 20 21 16 0 18 -2
7 -7z m-60 -6 c0 -2 -7 -7 -16 -10 -8 -3 -12 -2 -9 4 6 10 25 14 25 6z m100
-11 c10 -12 10 -15 -4 -15 -9 0 -16 7 -16 15 0 8 2 15 4 15 2 0 9 -7 16 -15z
m130 1 c0 -3 -4 -8 -10 -11 -5 -3 -10 -1 -10 4 0 6 5 11 10 11 6 0 10 -2 10
-4z m-275 -35 c3 -5 1 -12 -5 -16 -5 -3 -10 1 -10 9 0 18 6 21 15 7z m-72 -28
c-3 -7 -9 -13 -14 -13 -5 0 -9 6 -9 13 0 8 6 14 14 14 8 0 12 -6 9 -14z"/>
<path d="M6128 4791 c-162 -64 -268 -212 -333 -470 -48 -191 -69 -500 -62
-927 9 -568 39 -782 140 -994 62 -132 204 -236 337 -247 59 -5 74 -2 121 20
125 60 184 159 244 412 39 162 46 272 52 803 7 651 -3 815 -68 1042 -76 262
-181 381 -338 380 -25 -1 -67 -9 -93 -19z m177 -76 c73 -55 124 -162 150 -312
24 -139 -3 -276 -95 -468 -27 -58 -50 -109 -50 -115 0 -5 -4 -10 -8 -10 -5 0
-18 -17 -30 -38 -11 -21 -39 -57 -62 -80 -83 -84 -149 -49 -194 103 -10 33
-22 74 -27 90 -18 55 -59 352 -59 423 0 93 26 224 55 282 28 55 109 132 157
148 54 18 122 9 163 -23z"/>
<path d="M11086 3798 c3 -5 10 -6 15 -3 13 9 11 12 -6 12 -8 0 -12 -4 -9 -9z"/>
<path d="M11195 3620 c3 -5 8 -10 11 -10 2 0 4 5 4 10 0 6 -5 10 -11 10 -5 0
-7 -4 -4 -10z"/>
<path d="M11320 3229 c0 -5 5 -7 10 -4 6 3 10 8 10 11 0 2 -4 4 -10 4 -5 0
-10 -5 -10 -11z"/>
<path d="M11410 3160 c0 -5 5 -10 11 -10 5 0 8 -4 4 -9 -3 -5 -1 -12 5 -16 11
-7 13 5 4 29 -7 18 -24 22 -24 6z"/>
<path d="M11963 3150 c-1 -11 2 -18 8 -15 11 7 12 35 1 35 -4 0 -8 -9 -9 -20z"/>
<path d="M11845 3140 c3 -5 8 -10 11 -10 2 0 4 5 4 10 0 6 -5 10 -11 10 -5 0
-7 -4 -4 -10z"/>
<path d="M11524 3053 c0 -29 3 -53 7 -53 5 0 6 8 3 18 -5 15 -4 15 6 -1 15
-23 6 -49 -15 -41 -11 5 -14 2 -9 -9 3 -9 12 -13 21 -10 12 5 14 3 8 -7 -5 -9
-4 -11 4 -6 6 4 8 13 4 19 -5 9 -3 9 8 0 8 -6 26 -11 41 -10 20 2 24 5 16 15
-9 11 -13 11 -19 0 -7 -11 -9 -11 -9 0 0 7 -4 11 -9 8 -5 -3 -11 1 -14 9 -4 9
-1 12 8 9 27 -11 37 6 20 32 -9 14 -14 28 -12 32 3 4 -9 16 -27 27 l-31 21 -1
-53z m33 -5 c-3 -8 -6 -5 -6 6 -1 11 2 17 5 13 3 -3 4 -12 1 -19z m26 -29 c4
-16 3 -18 -9 -8 -7 6 -11 15 -8 20 8 13 11 11 17 -12z"/>
<path d="M11840 3091 c0 -5 6 -14 14 -20 12 -10 13 -8 9 8 -5 21 -23 30 -23
12z"/>
<path d="M11480 3081 c0 -6 4 -13 10 -16 6 -3 7 1 4 9 -7 18 -14 21 -14 7z"/>
<path d="M11826 3067 c3 -10 9 -15 12 -12 3 3 0 11 -7 18 -10 9 -11 8 -5 -6z"/>
<path d="M11445 3050 c3 -5 8 -10 11 -10 2 0 4 5 4 10 0 6 -5 10 -11 10 -5 0
-7 -4 -4 -10z"/>
<path d="M11406 3016 c-19 -30 -22 -48 -3 -22 10 13 20 16 35 12 12 -4 20 -11
18 -15 -3 -4 1 -8 9 -8 8 0 12 4 9 8 -2 4 3 12 12 17 19 11 11 17 -32 26 -26
6 -34 3 -48 -18z"/>
<path d="M11612 3024 c2 -10 10 -19 18 -20 31 -2 35 -5 20 -14 -9 -6 -10 -10
-3 -10 26 0 22 20 -8 41 -29 20 -31 20 -27 3z"/>
<path d="M11419 2952 c6 -11 8 -21 6 -24 -2 -2 4 -4 14 -4 23 0 18 17 -10 34
-18 12 -19 11 -10 -6z"/>
<path d="M11378 2943 c7 -3 16 -2 19 1 4 3 -2 6 -13 5 -11 0 -14 -3 -6 -6z"/>
<path d="M11602 2932 c7 -25 4 -26 -22 -12 -19 10 -21 3 -5 -33 6 -13 11 -15
21 -6 7 6 19 7 26 3 10 -6 10 -5 2 7 -6 8 -10 22 -9 31 2 10 -2 21 -7 25 -7 4
-9 -2 -6 -15z"/>
<path d="M11328 2927 c7 -8 6 -18 -4 -31 -9 -13 -10 -23 -4 -31 12 -15 3 -45
-14 -46 -6 0 0 -5 13 -10 13 -5 26 -7 29 -4 3 3 0 5 -6 5 -16 0 -15 27 1 34 8
3 7 8 -5 16 -15 9 -15 14 -5 24 6 8 15 12 18 10 3 -2 4 8 1 21 -2 14 -11 25
-19 25 -11 0 -13 -3 -5 -13z"/>
<path d="M11630 2919 c0 -5 5 -7 10 -4 6 3 10 8 10 11 0 2 -4 4 -10 4 -5 0
-10 -5 -10 -11z"/>
<path d="M11370 2910 c0 -5 5 -10 11 -10 5 0 7 5 4 10 -3 6 -8 10 -11 10 -2 0
-4 -4 -4 -10z"/>
<path d="M11520 2889 c0 -5 5 -7 10 -4 6 3 10 8 10 11 0 2 -4 4 -10 4 -5 0
-10 -5 -10 -11z"/>
<path d="M11285 2881 c-3 -5 -2 -12 3 -15 5 -3 9 1 9 9 0 17 -3 19 -12 6z"/>
<path d="M11576 2852 c-3 -5 1 -9 9 -9 8 0 12 4 9 9 -3 4 -7 8 -9 8 -2 0 -6
-4 -9 -8z"/>
<path d="M11208 2806 c-5 -23 -3 -24 31 -17 2 1 -2 7 -8 15 -9 11 -9 15 1 19
9 4 8 6 -3 6 -10 1 -19 -9 -21 -23z"/>
<path d="M11250 2811 c0 -6 5 -13 10 -16 6 -3 10 1 10 9 0 9 -4 16 -10 16 -5
0 -10 -4 -10 -9z"/>
<path d="M11290 2770 c8 -5 22 -10 30 -10 13 0 13 1 0 10 -8 5 -22 10 -30 10
-13 0 -13 -1 0 -10z"/>
<path d="M11251 2747 c8 -8 22 -12 32 -9 22 6 20 7 -16 16 -24 6 -26 5 -16 -7z"/>
<path d="M11313 2729 c-4 -14 -12 -19 -24 -16 -11 3 -19 1 -19 -4 0 -8 8 -11
26 -8 4 0 11 -5 16 -13 8 -10 9 -9 5 4 -3 9 -3 19 1 22 8 8 12 36 5 36 -3 0
-7 -9 -10 -21z"/>
<path d="M11230 2699 c0 -19 21 -50 31 -44 15 10 11 25 -7 25 -10 0 -14 6 -10
15 3 8 1 15 -4 15 -6 0 -10 -5 -10 -11z"/>
<path d="M11076 2635 c4 -8 8 -15 10 -15 2 0 4 7 4 15 0 8 -4 15 -10 15 -5 0
-7 -7 -4 -15z"/>
<path d="M11035 2609 c-4 -5 -3 -9 2 -8 21 4 33 -2 33 -16 0 -8 5 -15 10 -15
15 0 -5 36 -24 43 -9 4 -18 2 -21 -4z"/>
<path d="M11115 2610 c3 -5 8 -10 11 -10 2 0 4 5 4 10 0 6 -5 10 -11 10 -5 0
-7 -4 -4 -10z"/>
<path d="M11250 2611 c0 -6 4 -13 10 -16 6 -3 7 1 4 9 -7 18 -14 21 -14 7z"/>
<path d="M11280 2611 c0 -6 4 -13 10 -16 6 -3 7 1 4 9 -7 18 -14 21 -14 7z"/>
<path d="M10990 2595 c-10 -12 -16 -13 -26 -4 -10 8 -14 8 -14 0 0 -6 3 -11 8
-12 4 0 15 -2 25 -4 9 -2 17 1 17 7 0 6 7 8 14 5 10 -4 13 -1 9 9 -7 18 -17
18 -33 -1z"/>
<path d="M11098 2593 c6 -2 10 -9 7 -14 -4 -5 1 -6 10 -2 13 5 14 7 3 14 -7 5
-17 8 -23 8 -5 0 -4 -3 3 -6z"/>
<path d="M11040 2570 c0 -5 5 -10 11 -10 5 0 7 5 4 10 -3 6 -8 10 -11 10 -2 0
-4 -4 -4 -10z"/>
<path d="M11356 2572 c-2 -4 -1 -14 4 -22 7 -11 9 -9 7 8 -1 24 -3 26 -11 14z"/>
<path d="M11220 2566 c0 -2 9 -6 20 -9 11 -3 18 -1 14 4 -5 9 -34 13 -34 5z"/>
<path d="M11384 2555 c-3 -8 -2 -20 2 -26 5 -9 2 -10 -9 -6 -20 8 -22 0 -4
-18 9 -8 19 -10 28 -4 8 5 9 9 2 9 -6 0 -10 13 -9 30 2 33 -1 38 -10 15z"/>
<path d="M11226 2521 c13 -22 21 -27 27 -18 5 7 7 2 4 -16 -4 -23 -1 -27 14
-22 26 9 24 0 -5 -18 -22 -15 -23 -15 -20 9 5 48 -29 20 -41 -34 -3 -18 -11
-30 -16 -26 -5 3 -13 -5 -18 -18 -7 -16 -10 -18 -10 -6 -1 9 6 23 14 32 8 8
15 19 15 25 0 14 -17 14 -25 1 -10 -16 -21 -11 -21 10 0 11 5 20 10 20 5 0 1
7 -10 15 -12 9 -14 14 -6 15 10 0 9 4 -3 16 -12 13 -19 14 -28 5 -16 -16 -25
-14 -30 7 -4 15 -5 15 -6 0 0 -9 4 -20 9 -23 15 -10 12 -45 -5 -45 -8 0 -12 6
-9 14 3 7 -2 16 -10 19 -9 4 -16 15 -16 26 0 11 -5 23 -12 27 -6 4 -8 3 -4 -4
3 -6 1 -14 -5 -18 -8 -5 -5 -12 9 -23 17 -12 19 -19 11 -31 -9 -13 -10 -12 -5
3 3 9 1 17 -4 17 -6 0 -10 -8 -11 -17 0 -11 -3 -13 -6 -5 -2 6 -9 12 -14 12
-6 0 -8 -4 -5 -8 2 -4 -4 -9 -15 -9 -10 -1 -19 2 -19 8 0 5 4 9 9 9 6 0 9 9 8
19 -1 15 -4 17 -14 9 -7 -5 -11 -14 -8 -18 3 -4 -3 -11 -13 -15 -23 -11 -45
-15 -38 -8 8 9 -14 33 -30 33 -8 0 -11 -6 -8 -15 5 -12 2 -14 -12 -8 -17 6
-17 5 -5 -10 7 -9 16 -15 20 -13 3 2 15 -2 26 -10 19 -14 19 -14 -5 -10 -14 2
-35 5 -48 5 -15 1 -21 5 -16 13 4 6 3 8 -4 5 -5 -4 -9 -18 -7 -32 1 -14 0 -23
-3 -21 -8 8 -43 -14 -37 -23 2 -5 -5 -11 -18 -15 -18 -5 -19 -8 -8 -15 9 -6
22 -6 32 0 26 14 32 11 15 -7 -9 -8 -14 -20 -11 -25 4 -5 -1 -6 -9 -3 -9 3
-16 9 -16 13 0 4 -7 8 -15 8 -10 0 -14 -6 -10 -15 3 -9 0 -12 -9 -9 -8 3 -20
-1 -27 -9 -7 -8 -17 -13 -24 -10 -6 2 -17 -4 -23 -15 -7 -11 -18 -16 -27 -13
-8 4 -21 1 -29 -5 -16 -13 -9 -54 7 -44 6 4 7 1 2 -7 -6 -10 -12 -9 -24 7 -14
16 -19 17 -29 7 -7 -7 -18 -11 -26 -8 -8 3 -17 0 -22 -7 -5 -8 -3 -10 6 -4 9
5 11 4 6 -3 -4 -7 -14 -12 -22 -12 -8 0 -13 -4 -10 -9 8 -12 -26 -49 -41 -44
-6 2 -14 -1 -18 -6 -3 -6 -15 -11 -26 -11 -10 0 -19 -5 -19 -10 0 -6 -11 -8
-25 -6 -26 5 -35 -8 -12 -17 11 -5 6 -7 -35 -11 -7 0 -13 -8 -13 -16 0 -8 -8
-14 -17 -12 -9 1 -25 -9 -36 -22 -11 -14 -22 -22 -26 -19 -3 3 -6 1 -6 -5 0
-6 -14 -13 -30 -17 -17 -4 -28 -10 -25 -15 3 -4 -4 -6 -15 -3 -14 4 -20 0 -20
-11 0 -8 -6 -13 -13 -10 -7 2 -22 -4 -32 -16 -10 -11 -24 -20 -32 -20 -7 0
-13 -5 -13 -11 0 -6 9 -8 23 -4 14 5 19 4 12 -3 -5 -5 -21 -13 -34 -17 -18 -5
-22 -4 -16 5 5 8 4 11 -3 6 -6 -4 -8 -14 -5 -24 6 -15 5 -15 -11 -3 -14 12
-19 12 -29 1 -10 -10 -8 -12 6 -6 13 4 17 2 14 -6 -2 -7 -10 -12 -16 -10 -6 1
-14 -4 -17 -11 -3 -8 -14 -12 -27 -10 -12 2 -31 -3 -42 -11 -19 -15 -19 -16 8
-6 15 5 27 8 27 6 0 -9 -103 -55 -111 -50 -5 3 -9 0 -9 -5 0 -6 -9 -11 -21
-11 -11 0 -17 -4 -14 -10 3 -5 -2 -10 -13 -10 -11 0 -32 -10 -48 -22 -15 -13
-33 -23 -39 -23 -20 0 -75 -39 -75 -53 0 -12 -3 -12 -17 -1 -11 10 -14 10 -9
2 5 -9 0 -13 -13 -13 -19 0 -27 -16 -22 -43 1 -5 -3 -6 -8 -3 -5 4 -12 2 -16
-4 -4 -7 -14 -6 -28 2 -19 10 -20 9 -10 -3 10 -12 8 -15 -7 -15 -10 0 -16 5
-14 11 3 5 -1 1 -10 -9 -8 -10 -14 -22 -11 -25 2 -4 -5 -7 -16 -7 -11 0 -17 5
-15 11 2 5 9 9 15 7 7 -1 10 2 6 8 -8 14 -35 -6 -35 -26 0 -7 -6 -11 -14 -8
-8 3 -17 1 -21 -5 -3 -6 -15 -11 -25 -11 -14 0 -18 -5 -13 -17 3 -10 3 -15 -2
-11 -4 4 -25 -4 -46 -18 -21 -13 -43 -24 -48 -24 -20 0 -60 -23 -55 -31 3 -5
-2 -6 -10 -3 -9 3 -32 -3 -51 -15 -20 -11 -48 -23 -62 -26 -14 -2 -31 -9 -36
-14 -5 -5 -16 -7 -24 -4 -8 3 -13 0 -11 -8 2 -8 -4 -13 -14 -13 -10 1 -18 -3
-18 -9 0 -6 -3 -8 -6 -4 -3 3 -24 -5 -45 -19 -21 -13 -43 -24 -49 -24 -6 0
-13 -6 -16 -14 -3 -8 -17 -17 -30 -20 -15 -4 -22 -11 -18 -18 5 -7 0 -9 -14
-6 -12 4 -24 2 -27 -3 -3 -4 -12 -6 -20 -2 -9 3 -15 -1 -15 -11 0 -9 -8 -16
-19 -16 -10 0 -26 -10 -35 -23 -11 -14 -19 -18 -22 -10 -6 13 -64 -2 -64 -17
0 -4 -9 -6 -20 -3 -12 3 -20 0 -20 -6 0 -7 -4 -10 -9 -6 -5 3 -13 0 -16 -6 -4
-5 -13 -8 -21 -5 -8 3 -14 2 -14 -3 0 -5 -11 -12 -25 -15 -14 -4 -23 -11 -20
-16 3 -6 -1 -11 -9 -11 -9 -1 -20 -3 -26 -4 -5 -1 -17 -3 -26 -4 -8 0 -12 -5
-9 -11 6 -9 -10 -14 -42 -13 -7 1 -10 -3 -7 -8 3 -5 -3 -9 -13 -9 -10 0 -27
-7 -37 -15 -11 -8 -30 -15 -42 -15 -13 0 -25 -4 -28 -9 -3 -4 -17 -6 -32 -3
-14 3 -29 0 -33 -7 -7 -11 -46 -23 -78 -24 -7 0 -13 -4 -13 -9 0 -4 -13 -8
-30 -8 -16 0 -30 -4 -30 -8 0 -4 -12 -9 -26 -10 -14 -1 -32 -9 -40 -17 -19
-19 -30 -20 -15 -1 10 12 8 13 -8 9 -12 -3 -18 -10 -15 -15 4 -6 -2 -7 -16 -3
-15 5 -20 4 -16 -4 5 -7 -2 -11 -18 -11 -14 0 -27 -4 -30 -9 -3 -4 -22 -7 -41
-5 -23 1 -38 -2 -41 -11 -3 -7 -14 -12 -24 -10 -11 2 -30 -5 -45 -16 -24 -19
-25 -19 -25 -2 -1 17 -1 17 -11 0 -8 -14 -14 -16 -25 -6 -12 10 -13 9 -8 -6 6
-15 4 -16 -16 -5 -13 7 -20 8 -16 2 4 -6 -1 -10 -11 -10 -10 1 -36 -2 -58 -7
-53 -10 -93 -15 -133 -18 -18 -1 -36 -7 -40 -13 -4 -6 -14 -11 -22 -12 -44 -3
-80 -9 -85 -14 -4 -3 -19 -3 -34 2 -15 4 -34 4 -43 -1 -15 -8 -133 -20 -248
-24 -59 -2 -132 -10 -185 -19 -11 -2 -28 1 -37 6 -12 5 -18 5 -18 -2 0 -9 21
-14 42 -11 4 0 5 -6 2 -14 -5 -11 -2 -13 10 -9 9 3 16 2 16 -3 0 -5 -9 -9 -20
-10 -12 -1 -20 4 -20 14 0 13 -3 13 -17 2 -10 -7 -15 -10 -11 -5 4 5 1 15 -7
22 -16 16 -29 19 -20 4 4 -6 -5 -9 -19 -8 -15 1 -26 5 -26 9 0 3 -24 5 -54 5
-30 -1 -52 -4 -50 -8 2 -3 -2 -9 -8 -12 -7 -4 -3 -4 10 -2 12 2 22 -1 23 -7 0
-7 4 -3 9 8 5 11 9 14 9 8 1 -7 6 -13 12 -13 5 0 7 5 3 11 -3 6 5 3 20 -6 14
-10 35 -15 45 -12 14 3 18 1 14 -9 -5 -14 -16 -18 -40 -15 -6 1 -14 -2 -16 -6
-10 -15 47 -11 59 4 12 18 39 8 28 -9 -4 -7 -2 -8 5 -4 6 4 9 12 6 17 -7 11
24 0 44 -15 11 -8 13 -8 7 2 -4 7 -2 12 8 12 8 0 20 8 25 18 6 9 11 12 11 5 0
-6 9 -9 23 -6 18 4 19 3 7 -6 -8 -6 -11 -11 -6 -11 5 0 18 8 28 17 14 12 17
13 13 2 -4 -11 4 -13 45 -11 28 2 50 0 50 -6 0 -12 32 -11 41 1 3 5 9 2 12 -7
4 -10 1 -16 -8 -16 -8 0 -15 -5 -15 -11 0 -5 5 -7 11 -3 7 4 25 7 41 6 15 0
26 3 23 8 -3 5 -1 11 4 14 5 4 12 -4 14 -16 4 -22 4 -22 6 -1 1 16 6 20 21 16
11 -3 20 -10 20 -15 0 -6 7 -5 16 3 13 10 17 10 24 -2 7 -10 4 -16 -8 -21 -16
-6 -16 -7 0 -7 9 -1 20 3 23 9 3 5 21 11 38 11 30 2 31 2 5 6 -31 5 -37 18
-12 27 8 3 12 2 9 -4 -8 -13 88 -9 97 5 5 6 8 6 8 -2 0 -9 8 -9 31 -1 25 9 32
7 45 -8 13 -16 15 -17 10 -2 -4 15 -1 16 19 8 17 -6 25 -6 25 1 0 6 5 7 10 4
6 -4 7 -11 4 -17 -4 -7 -2 -8 5 -4 6 4 9 12 6 17 -8 12 6 11 25 0 8 -6 18 -7
23 -4 5 3 3 9 -4 14 -10 6 -8 9 9 9 12 0 22 -5 22 -11 0 -6 7 -9 15 -5 8 3 15
2 15 -2 0 -4 16 -7 35 -8 19 0 35 3 35 8 0 5 -4 7 -9 3 -5 -3 -12 -1 -16 5 -3
5 3 10 14 10 12 0 21 -7 21 -15 0 -8 3 -15 8 -16 4 0 15 -2 25 -4 9 -2 17 1
17 7 0 6 -8 7 -17 4 -16 -5 -16 -4 -3 7 8 7 20 18 26 25 8 10 11 9 11 -3 0 -8
-5 -15 -10 -15 -5 0 -4 -7 3 -15 18 -22 53 -1 45 28 -5 17 -4 19 4 7 6 -8 15
-16 21 -16 5 -1 15 -2 21 -3 8 -1 7 -7 -2 -18 -12 -15 -12 -16 1 -7 8 5 29 10
45 10 51 3 55 4 55 15 0 5 -4 8 -9 5 -5 -3 -15 2 -22 11 -9 10 -9 14 -2 10 18
-11 69 3 51 14 -9 6 -9 9 -1 9 6 0 15 -4 18 -10 3 -5 14 -10 23 -10 13 0 13 2
-4 15 -18 14 -17 14 9 3 20 -8 26 -16 21 -30 -4 -13 0 -18 15 -18 31 0 73 19
66 30 -11 18 4 11 25 -12 l21 -23 6 24 6 23 14 -23 14 -24 -7 25 -6 25 17 -22
c9 -13 24 -23 33 -22 14 0 14 2 2 7 -22 10 -24 33 -2 25 15 -6 15 -5 3 10 -7
9 -9 17 -4 17 6 0 15 -10 21 -23 6 -12 11 -16 11 -9 1 6 8 12 16 12 8 0 15 4
15 9 0 5 -10 7 -22 5 -21 -4 -21 -4 -3 5 11 4 25 6 30 3 18 -11 35 -11 42 0 3
6 2 8 -3 5 -6 -3 -16 -2 -23 2 -9 6 -1 10 23 13 26 3 36 0 36 -10 0 -9 7 -13
20 -9 11 3 20 1 20 -5 0 -5 5 -6 10 -3 6 4 8 11 5 16 -3 5 1 6 9 3 9 -3 13
-10 10 -15 -3 -5 2 -6 10 -3 9 3 13 10 10 15 -3 5 0 9 5 9 25 0 5 -35 -24 -43
-11 -3 -6 -5 13 -4 24 1 32 6 32 20 0 10 5 15 10 12 6 -3 10 -2 10 4 0 10 25
9 36 -2 4 -4 18 0 31 8 17 12 23 12 23 3 0 -9 3 -8 10 2 8 13 10 12 10 -4 0
-14 3 -16 13 -7 8 6 39 9 70 8 34 -2 54 1 50 7 -4 5 1 7 10 3 9 -3 18 -3 21 1
2 4 48 7 102 7 86 0 98 2 102 18 3 12 12 17 26 15 11 -1 27 1 34 6 8 5 21 1
34 -11 12 -10 18 -13 14 -6 -10 19 33 38 94 41 89 4 100 6 100 15 0 5 7 1 16
-8 21 -20 39 -14 38 13 0 21 16 20 45 -2 11 -8 13 -8 8 0 -4 6 2 19 12 28 17
15 20 15 44 -5 l27 -21 9 24 c6 13 10 17 10 11 1 -14 78 -15 87 -1 3 4 1 8 -4
8 -6 0 -12 7 -16 15 -5 13 -3 13 17 0 13 -8 43 -14 70 -13 42 0 52 6 49 29 -1
4 8 5 18 2 16 -4 19 -2 14 13 -6 17 -5 17 9 -1 15 -19 14 -20 -11 -27 -27 -6
-26 -7 3 -5 23 2 29 6 27 21 -3 14 1 17 13 12 9 -3 19 -6 21 -6 3 0 3 -4 0 -9
-10 -15 42 1 63 20 11 10 27 19 36 19 8 0 15 6 15 13 0 6 8 0 18 -15 9 -16 20
-28 24 -28 12 0 9 10 -7 27 -24 23 -2 43 41 36 21 -3 40 -1 49 7 13 11 18 11
28 0 7 -7 7 -10 2 -7 -6 3 -12 -4 -12 -15 -2 -21 -2 -21 13 1 8 11 12 25 9 31
-3 6 1 7 9 4 9 -3 16 -2 16 3 0 5 17 10 38 11 20 2 52 7 69 13 18 6 37 7 43 4
7 -4 14 2 17 14 4 16 9 19 18 11 9 -8 14 -6 19 6 4 11 14 15 31 12 13 -3 22
-1 19 3 -3 5 0 9 5 9 6 0 11 8 11 18 0 14 2 14 9 3 16 -25 41 -22 41 5 0 24
14 32 24 15 4 -5 0 -11 -6 -14 -7 -2 -10 -7 -7 -11 3 -3 17 -2 30 3 13 5 19
10 12 10 -7 1 -10 8 -7 16 5 12 9 12 31 -3 26 -16 26 -16 14 5 -13 25 -14 33
-3 32 25 -4 42 4 47 22 5 16 9 18 15 9 10 -15 33 -3 27 14 -3 7 -1 19 4 27 6
10 9 10 9 2 0 -7 7 -13 16 -13 9 0 12 -5 8 -12 -5 -7 -3 -8 5 -3 9 5 10 10 2
18 -21 21 -11 28 34 23 25 -2 42 0 40 4 -3 5 -1 11 4 15 6 3 8 12 4 20 -6 17
8 20 23 5 17 -17 14 22 -3 41 -12 15 -11 18 17 28 26 8 35 8 47 -4 18 -19 20
-19 20 0 0 8 -4 15 -9 15 -16 0 -8 17 15 29 12 6 14 9 5 7 -30 -9 -20 19 11
31 22 8 32 8 41 -1 9 -8 11 -7 8 4 -2 8 3 14 10 13 6 -2 12 6 12 17 0 12 5 17
14 14 8 -3 16 3 19 15 4 15 0 21 -11 21 -30 0 11 31 44 33 20 2 29 8 29 19 0
21 36 55 53 52 7 -1 8 0 2 3 -16 7 -12 33 5 33 18 0 20 20 3 20 -8 1 -6 6 5
14 12 9 14 16 7 21 -17 10 -2 24 20 18 13 -3 20 0 20 8 0 11 2 11 10 -1 12
-18 13 -33 2 -26 -4 2 -14 0 -22 -5 -11 -7 -7 -9 16 -7 17 1 31 8 31 15 0 7
-4 13 -9 13 -14 0 -4 25 17 38 14 9 15 12 3 8 -21 -6 -44 19 -27 30 7 4 9 3 5
-4 -3 -6 -2 -13 4 -17 5 -3 10 -1 10 5 0 6 5 8 10 5 6 -3 10 1 10 9 0 9 6 13
14 10 18 -7 31 13 18 29 -15 17 -19 46 -7 46 6 1 11 -3 11 -9 1 -5 2 -14 3
-19 0 -5 10 -7 20 -4 19 5 19 5 -1 25 -11 11 -17 22 -14 25 3 3 22 -12 42 -33
21 -22 32 -32 25 -22 -9 13 -9 17 1 21 8 4 5 8 -9 12 -22 7 -42 37 -21 32 21
-4 20 24 -1 30 -11 3 -18 9 -16 14 3 4 12 6 20 2 9 -3 15 1 15 10 0 11 7 14
23 10 22 -5 22 -5 2 12 -15 13 -16 15 -3 11 9 -2 19 2 22 10 3 9 10 12 16 9 5
-3 10 -1 10 4 0 6 -7 11 -16 11 -14 0 -14 3 -4 15 7 9 10 19 6 22 -4 4 -10 2
-14 -4 -5 -8 -12 -8 -25 2 -22 16 -12 23 26 20 15 -1 27 3 27 9 0 6 4 5 9 -3
6 -9 9 -5 9 13 0 14 -5 26 -10 26 -6 0 -8 7 -5 14 4 9 -2 18 -15 22 -20 6 -20
8 -5 19 9 6 14 15 10 18 -3 4 4 7 16 7 12 0 20 4 16 9 -3 5 4 12 15 16 11 3
20 11 20 16 0 5 7 9 16 9 8 0 12 5 9 11 -4 6 -13 8 -21 5 -9 -3 -14 1 -14 13
0 11 -5 21 -12 23 -8 3 -3 15 14 33 22 24 24 30 13 42 -8 7 -18 13 -22 12 -20
-3 -24 2 -13 16 7 8 18 15 24 15 6 0 4 -5 -4 -11 -13 -9 -13 -10 0 -6 8 2 16
9 16 15 1 7 2 15 3 19 0 4 8 -2 17 -13 8 -10 12 -13 8 -5 -4 8 -9 35 -10 60
-1 25 -3 48 -3 50 -1 3 -7 -3 -14 -13 -13 -17 -14 -17 -28 0 -7 10 -9 15 -3
11 7 -4 14 2 17 14 4 14 2 18 -6 12 -19 -13 -52 -9 -52 6 0 8 -6 16 -14 19
-10 3 -9 -4 5 -27z m-106 -47 c0 -8 -4 -14 -10 -14 -5 0 -10 9 -10 21 0 11 5
17 10 14 6 -3 10 -13 10 -21z m188 -29 c-2 -6 -8 -10 -15 -10 -14 0 -41 -25
-27 -25 5 0 3 -4 -5 -9 -8 -5 -20 -7 -28 -4 -15 6 -18 33 -3 33 6 0 10 -4 10
-10 0 -5 12 2 27 16 26 24 48 29 41 9z m-202 -21 c-3 -8 -1 -14 5 -14 6 0 8
-9 4 -19 -3 -11 -1 -22 5 -26 7 -4 10 0 8 10 -2 10 3 20 10 22 7 3 12 -4 12
-16 0 -12 -4 -21 -10 -21 -5 0 -7 -8 -3 -17 4 -11 -2 -8 -14 7 -22 28 -44 85
-36 94 10 10 25 -6 19 -20z m-126 -19 c14 -16 10 -18 -14 -9 -9 3 -16 10 -16
15 0 14 16 11 30 -6z m315 5 c3 -5 1 -10 -4 -10 -6 0 -11 5 -11 10 0 6 2 10 4
10 3 0 8 -4 11 -10z m-225 -28 c0 -5 -7 -9 -15 -9 -8 0 -12 4 -9 9 3 4 9 8 15
8 5 0 9 -4 9 -8z m140 -8 c0 -2 -7 -4 -15 -4 -8 0 -15 4 -15 10 0 5 7 7 15 4
8 -4 15 -8 15 -10z m54 -46 c-3 -5 -12 -2 -20 6 -20 21 -17 28 5 14 11 -7 17
-16 15 -20z m-226 4 c-8 -9 -14 -9 -24 -1 -19 16 -18 17 10 15 18 -1 22 -4 14
-14z m62 3 c-7 -9 -15 -13 -19 -10 -3 3 1 10 9 15 21 14 24 12 10 -5z m-475
-105 c3 -5 2 -10 -4 -10 -5 0 -13 5 -16 10 -3 6 -2 10 4 10 5 0 13 -4 16 -10z
m610 -160 c-3 -5 -12 -10 -18 -10 -7 0 -6 4 3 10 19 12 23 12 15 0z m-65 -80
c8 13 11 13 26 -1 15 -15 14 -16 -8 -15 -12 0 -23 -5 -24 -11 -1 -7 -2 -19 -3
-27 -1 -15 -41 -10 -41 5 0 5 6 6 14 3 11 -4 13 0 9 15 -3 12 -9 21 -14 21 -5
0 -9 5 -9 10 0 6 8 5 20 -2 17 -11 22 -10 30 2z m-606 -747 c-1 -27 -18 -36
-20 -10 0 10 14 37 20 37 1 0 1 -12 0 -27z m-30 -1 c2 -4 1 -14 -5 -22 -5 -8
-9 -13 -10 -10 0 3 -2 13 -4 23 -3 17 10 24 19 9z m-119 -112 c3 -5 -1 -10
-10 -10 -9 0 -13 5 -10 10 3 6 8 10 10 10 2 0 7 -4 10 -10z m-635 -222 c0 -4
-4 -8 -9 -8 -6 0 -12 4 -15 8 -3 5 1 9 9 9 8 0 15 -4 15 -9z m-40 -18 c0 -11
-24 -26 -37 -24 -7 1 -19 2 -25 3 -15 2 31 27 50 27 6 1 12 -3 12 -6z m-210
-44 c0 -3 -4 -8 -10 -11 -5 -3 -10 -1 -10 4 0 6 5 11 10 11 6 0 10 -2 10 -4z
m-673 -122 c-3 -3 -12 -4 -19 -1 -8 3 -5 6 6 6 11 1 17 -2 13 -5z m-902 -84
c-3 -5 0 -10 7 -10 9 0 9 -3 -2 -10 -24 -15 -32 -12 -20 10 6 11 13 20 16 20
3 0 2 -4 -1 -10z m-205 -11 c0 -5 -4 -8 -9 -5 -5 4 -11 1 -13 -6 -3 -8 -7 -6
-11 5 -5 12 -1 17 13 17 11 0 20 -5 20 -11z m-943 -15 c-3 -3 -12 -4 -19 -1
-8 3 -5 6 6 6 11 1 17 -2 13 -5z m143 -24 c0 -5 -7 -7 -15 -4 -8 4 -15 8 -15
10 0 2 7 4 15 4 8 0 15 -4 15 -10z m137 -22 c-3 -8 -6 -5 -6 6 -1 11 2 17 5
13 3 -3 4 -12 1 -19z"/>
<path d="M11420 2491 c0 -25 6 -27 13 -6 4 8 2 17 -3 20 -6 4 -10 -3 -10 -14z"/>
<path d="M10920 2478 c0 -12 3 -18 7 -14 11 10 12 36 2 36 -5 0 -9 -10 -9 -22z"/>
<path d="M11336 2484 c-8 -20 -5 -23 23 -29 12 -2 19 0 16 6 -4 5 2 9 12 9 14
1 13 4 -7 15 -32 18 -37 18 -44 -1z m24 -4 c0 -5 -5 -10 -11 -10 -5 0 -7 5 -4
10 3 6 8 10 11 10 2 0 4 -4 4 -10z"/>
<path d="M11340 2429 c0 -5 5 -7 10 -4 6 3 10 8 10 11 0 2 -4 4 -10 4 -5 0
-10 -5 -10 -11z"/>
<path d="M11356 2401 c-4 -7 -5 -15 -2 -18 9 -9 19 4 14 18 -4 11 -6 11 -12 0z"/>
<path d="M11342 2363 c19 -5 31 -30 21 -45 -3 -7 -1 -8 5 -4 7 4 12 2 12 -5 0
-7 3 -10 6 -7 11 11 -26 68 -44 67 -15 -1 -15 -2 0 -6z"/>
<path d="M11327 2303 c-4 -7 1 -16 10 -22 17 -9 17 -10 1 -16 -10 -4 -18 -11
-18 -16 0 -5 9 -4 20 3 11 7 20 21 20 31 0 10 -4 16 -9 13 -5 -4 -11 -1 -13 6
-3 9 -6 9 -11 1z"/>
<path d="M11300 2275 c0 -16 3 -24 8 -19 4 5 11 11 15 15 4 3 1 12 -8 19 -13
11 -15 9 -15 -15z"/>
<path d="M11315 2200 c-3 -5 -1 -10 4 -10 6 0 11 5 11 10 0 6 -2 10 -4 10 -3
0 -8 -4 -11 -10z"/>
<path d="M11276 2164 c-4 -9 -5 -17 -4 -18 2 -1 14 -7 28 -15 24 -14 24 -13
10 4 -14 17 -13 18 3 12 15 -6 21 2 15 20 -4 12 -28 12 -25 1 1 -6 -4 -13 -11
-15 -8 -3 -10 1 -6 11 3 9 4 16 1 16 -3 0 -8 -7 -11 -16z"/>
<path d="M10435 2150 c-3 -5 1 -10 9 -10 8 0 18 5 21 10 3 6 -1 10 -9 10 -8 0
-18 -4 -21 -10z"/>
<path d="M11253 2121 c1 -12 7 -21 15 -21 16 0 12 32 -5 37 -7 3 -11 -4 -10
-16z"/>
<path d="M11271 2048 c0 -9 -8 -21 -17 -26 -9 -5 -14 -15 -10 -21 4 -6 12 -9
17 -5 5 3 7 10 4 15 -9 13 9 11 25 -3 12 -11 12 -10 3 2 -6 8 -13 24 -16 35
-4 15 -5 16 -6 3z"/>
<path d="M11270 1980 c0 -5 5 -10 10 -10 6 0 10 5 10 10 0 6 -4 10 -10 10 -5
0 -10 -4 -10 -10z"/>
<path d="M11190 1890 c6 -11 13 -20 16 -20 2 0 0 9 -6 20 -6 11 -13 20 -16 20
-2 0 0 -9 6 -20z"/>
<path d="M11220 1900 c-8 -5 -10 -10 -5 -10 6 0 17 5 25 10 8 5 11 10 5 10 -5
0 -17 -5 -25 -10z"/>
<path d="M11085 1720 c3 -5 8 -10 11 -10 2 0 4 5 4 10 0 6 -5 10 -11 10 -5 0
-7 -4 -4 -10z"/>
<path d="M10910 1530 c8 -5 20 -10 25 -10 6 0 3 5 -5 10 -8 5 -19 10 -25 10
-5 0 -3 -5 5 -10z"/>
<path d="M10836 1398 c3 -5 10 -6 15 -3 13 9 11 12 -6 12 -8 0 -12 -4 -9 -9z"/>
<path d="M10650 1289 c0 -5 -6 -7 -12 -3 -7 4 -6 -1 4 -11 16 -18 39 -13 37 8
0 9 -2 9 -6 0 -2 -7 -9 -13 -14 -13 -4 0 -6 7 -3 15 4 8 3 15 0 15 -3 0 -6 -5
-6 -11z"/>
<path d="M10535 1180 c3 -5 11 -10 16 -10 6 0 7 5 4 10 -3 6 -11 10 -16 10 -6
0 -7 -4 -4 -10z"/>
<path d="M10450 1110 c0 -5 -9 -10 -19 -10 -11 0 -23 -4 -26 -10 -3 -5 0 -10
8 -10 18 0 67 39 50 40 -7 0 -13 -4 -13 -10z"/>
<path d="M9768 868 c9 -9 15 -9 24 0 9 9 7 12 -12 12 -19 0 -21 -3 -12 -12z"/>
<path d="M9304 802 c3 -5 0 -13 -6 -15 -9 -4 -10 -6 -1 -6 17 -1 25 16 12 25
-7 4 -9 3 -5 -4z"/>
<path d="M8918 716 c-10 -7 -18 -16 -18 -19 0 -12 28 4 34 19 6 17 6 17 -16 0z"/>
<path d="M9016 715 c-3 -8 5 -10 20 -7 33 6 38 18 9 18 -14 0 -26 -5 -29 -11z"/>
<path d="M6157 630 c-10 -13 -10 -13 4 -3 10 9 19 9 26 2 7 -7 13 -6 21 3 8
10 5 13 -15 13 -13 0 -30 -7 -36 -15z"/>
<path d="M6336 635 c-8 -22 3 -40 16 -27 7 7 7 16 1 27 -9 16 -10 16 -17 0z"/>
<path d="M8255 640 c-4 -6 -11 -7 -17 -4 -7 4 -8 2 -4 -4 4 -6 13 -9 21 -5 8
3 15 0 15 -5 0 -6 9 -10 19 -9 11 0 17 6 14 14 -3 7 -9 10 -14 7 -5 -3 -9 0
-9 5 0 14 -17 14 -25 1z"/>
<path d="M6226 632 c-2 -4 4 -8 14 -8 10 0 16 4 14 8 -3 4 -9 8 -14 8 -5 0
-11 -4 -14 -8z"/>
<path d="M6277 627 c-3 -7 5 -12 19 -12 29 0 29 1 5 14 -14 8 -20 7 -24 -2z"/>
<path d="M8202 631 c-11 -6 -10 -10 0 -19 11 -8 14 -7 15 9 2 22 2 21 -15 10z"/>
<path d="M6118 623 c7 -3 16 -2 19 1 4 3 -2 6 -13 5 -11 0 -14 -3 -6 -6z"/>
<path d="M7853 601 c0 -14 1 -18 4 -9 2 9 12 18 21 20 14 3 13 5 -3 9 -17 5
-21 1 -22 -20z"/>
<path d="M6695 570 c-3 -5 -1 -10 4 -10 6 0 11 5 11 10 0 6 -2 10 -4 10 -3 0
-8 -4 -11 -10z"/>
<path d="M6800 555 c0 -8 9 -15 20 -15 11 0 20 2 20 5 0 2 -9 9 -20 15 -16 9
-20 8 -20 -5z"/>
</g>
</svg>
